<?xml version="1.0" encoding="utf-8"?>
<!-- Generator: Adobe Illustrator 22.1.0, SVG Export Plug-In . SVG Version: 6.00 Build 0)  -->
<svg version="1.1" id="Layer_1" xmlns="http://www.w3.org/2000/svg" xmlns:xlink="http://www.w3.org/1999/xlink" x="0px" y="0px"
	 viewBox="0 0 27 34" enable-background="new 0 0 27 34" xml:space="preserve">
<path stroke-miterlimit="10" d="M13.6,1l-0.1,0L1,2.3v23.2L13.5,33L26,25.5V2.3L13.6,1z M24.4,24.5l-10.9,6.5
	L2.6,24.5v-9.5l10.8,6.5l0,1.2L6,18.3l0,1.1l7.5,4.5l0,1.2l-7.4-4.5l0,1.1l7.5,4.5l7.5-4.5v-1.2l0,0v-0.4v-0.5v-2.9l3.4-2V24.5z
	 M24.4,13.7l-3,1.8L20,16.2l-6.5-3.9l0,1.1l5.6,3.4l0,0l-0.1,0.1l-0.8,0.5l-4.6-2.8l0,1.1l3.6,2.2l-0.9,0.6l0,0l-2.8-1.6l0,1.1
	l1.8,1.1l-1.8,1.1L2.7,13.8l10.8-6.5v0L24.4,13.7z M24.4,12.5L13.4,6v0l0,0l0,0v0L2.6,12.5V3.8l10.9-1.2l10.9,1.2V12.5z"/>
</svg>
